<svg id="Capa_1" data-name="Capa 1" xmlns="http://www.w3.org/2000/svg" viewBox="0 0 751 324"><defs><style>.cls-1{fill:#aac8ab;}</style></defs><title>asistenteMesa de trabajo 1calmo</title><path d="M361.56,142.57a19.42,19.42,0,0,1,10.46-3,20.35,20.35,0,0,1,7.36,1.12,21.39,21.39,0,0,1,5.85,3.7,4.43,4.43,0,0,0,5.84,0,3.72,3.72,0,0,0,1.27-2.88,4.89,4.89,0,0,0-.34-1.9,4,4,0,0,0-1.36-1.6,30.22,30.22,0,0,0-8.59-5,29.79,29.79,0,0,0-10-1.53,28.44,28.44,0,0,0-14.93,4.09,29.59,29.59,0,0,0-10.64,11.06A31.15,31.15,0,0,0,342.56,162a31.51,31.51,0,0,0,3.89,15.47A29.21,29.21,0,0,0,357.1,188.5a28.61,28.61,0,0,0,14.93,4,29.15,29.15,0,0,0,18.74-6.68,4.35,4.35,0,0,0,1.36-3.16,4.3,4.3,0,0,0-1.08-3c-1.33-1.44-3.46-1.66-5.56-.18A22.23,22.23,0,0,1,372,184.34a19.41,19.41,0,0,1-10.46-3,21.83,21.83,0,0,1-7.6-8.11,23.9,23.9,0,0,1,0-22.51A21.78,21.78,0,0,1,361.56,142.57Z"/><path d="M434.67,135.18a4.2,4.2,0,0,0-4.18-3,4.32,4.32,0,0,0-4.17,3l-21.06,50.28a5.45,5.45,0,0,0-.41,1.92,4.41,4.41,0,0,0,1.23,3.11,4.12,4.12,0,0,0,3.13,1.33,4.31,4.31,0,0,0,2.4-.73,4.71,4.71,0,0,0,1.71-2l4.13-10.15H443.6l4.06,10.14a4.16,4.16,0,0,0,1.68,2,4.5,4.5,0,0,0,2.43.72,4.31,4.31,0,0,0,3.16-1.28,4.22,4.22,0,0,0,1.28-3.08,5.27,5.27,0,0,0-.42-1.86Zm5.87,36.2h-20l10.12-24.67Z"/><path d="M507.92,182.92H481.35V136.64a4.38,4.38,0,0,0-4.44-4.44,4.22,4.22,0,0,0-3.08,1.28,4.31,4.31,0,0,0-1.28,3.16v50.71a4.38,4.38,0,0,0,1.24,3.15,4.18,4.18,0,0,0,3.13,1.29h31a4.44,4.44,0,1,0,0-8.88Z"/><path d="M584.75,132.2a4.32,4.32,0,0,0-3.94,2.4l-21.16,43.58-21.77-43.61a4.43,4.43,0,0,0-8.36,2.07v50.71a4.44,4.44,0,1,0,8.88,0V153.12l16.87,33.81a4.27,4.27,0,0,0,4.09,2.63,4.43,4.43,0,0,0,3.86-2.25l17.09-34.82v34.88a4.44,4.44,0,0,0,7.55,3.16,4.25,4.25,0,0,0,1.33-3.16V136.64a4.38,4.38,0,0,0-4.44-4.44Z"/><path d="M666,146.19a27.71,27.71,0,0,0-10.77-10.85,33.61,33.61,0,0,0-31.4,0,27.44,27.44,0,0,0-10.74,10.85,34.59,34.59,0,0,0,0,31.57,27.37,27.37,0,0,0,10.74,10.89,33.69,33.69,0,0,0,31.44,0A27.7,27.7,0,0,0,666,177.77a34.29,34.29,0,0,0,0-31.58Zm-26.43,38.22a21.53,21.53,0,0,1-11.18-3,20.82,20.82,0,0,1-7.74-8.07,24.87,24.87,0,0,1,0-22.85,20.64,20.64,0,0,1,7.7-8,23,23,0,0,1,22.44,0,20.66,20.66,0,0,1,7.7,8,24.87,24.87,0,0,1,0,22.85,20.83,20.83,0,0,1-7.74,8.07A21.53,21.53,0,0,1,639.57,184.42Z"/><path d="M192,286.85l-1-.56L82.15,224.44V99.56L192,37.15,301.83,99.56V224.44ZM86.15,222.11,192,282.25l105.84-60.14V101.89L192,41.75,86.15,101.89Z"/><path d="M192,288l-1.48-.84L81.15,225V99L192,36,302.83,99V225l-.51.29ZM83.15,223.86,192,285.7l108.84-61.84V100.14L192,38.3,83.15,100.14ZM192,283.4l-.49-.28L85.15,222.69V101.31L192,40.6l.49.28,106.35,60.43V222.69l-.51.29ZM87.15,221.53,192,281.1l104.84-59.57V102.47L192,42.9,87.15,102.47Z"/><path d="M87.49,193.16c2.42-3.17,10.07-1,13.38-.5s6.8,1.24,10.24,1.58c7.39.74,14.38-1.66,21.72-1.89,7.63-.24,15.23.51,22.86.16,7.8-.36,15.58-1,23.38-1.38,3.63-.18,7.43-.62,11,.05,3.17.59,6,2.49,9.2,2.82,2.89.3,4.73-1.12,7.4-1.81a51.06,51.06,0,0,0,7-2c6.39-2.6,15.34-1,21.88.38,5.9,1.29,11.61,3.27,17.4,5a81.53,81.53,0,0,0,20.21,3.55c7.91.25,17.63,2.29,25.5,2.46,2.58.06,2.57-3.94,0-4-7-.15-15.85-2.27-22.91-2.43a83,83,0,0,1-21.73-3.44c-12.39-3.61-25.19-8.25-38.33-6.25-5.57.85-11.26,4.88-17.1,4.41-3.1-.25-6.12-2.39-9.34-2.77a66.63,66.63,0,0,0-11,.11c-8.17.4-16.32,1.12-24.5,1.42s-16.39-.83-24.5,0c-4.32.43-8.55,1.6-12.89,1.82-4.6.24-9.08-.72-13.6-1.45-5.95-1-15.2-2.5-19.36,3-1.56,2,.49,5.28,2,3.26Z"/><path d="M188.26,185.56c-5.84,0-18.82-1-26.6-8.76-8.11-7.79-9.41-20.76-9.41-26.6,5.84,0,18.82,1,26.93,8.76s9.08,20.76,9.08,26.6Zm.32-46.72c-4.22-.32-12.33-1.3-17.19-6.49s-5.84-13.3-5.84-17.52c4.22.32,12.33,1.3,17.19,6.49,4.54,4.87,5.84,12,5.84,16.55Zm3.24-34.06c-2.27-2.6-5.52-6.81-5.52-11.68s2.92-9.41,5.19-11.68C193.77,84,197,88.24,197,93.1,197.34,98,194.1,102.19,191.83,104.78Zm3.24,80.78c0-5.84,1.3-18.82,9.41-26.6s21.09-8.76,26.93-8.76c0,5.84-1.3,18.82-9.41,26.6s-20.76,8.76-26.93,8.76Zm-12.58,2.6,9.5-.44,10.25,4.44,13.25-4c1.95-1.3,9.43-4.87,11.05-6.49,12.65-12.33,11.35-33.74,11.35-34.71A2.91,2.91,0,0,0,235,144c-1,0-22.06-1.95-35,10.38a30.85,30.85,0,0,0-4.87,6.49V145.33c5.19,0,15.25-1,22.06-7.79,9.41-9.08,8.43-24.66,8.43-25.3a2.91,2.91,0,0,0-2.92-2.92c-.65,0-16.22-1.3-25.63,7.79-.65.65-1.3,1.62-1.95,2.27v-7.79c2.6-2.6,8.76-9.41,8.76-17.84,0-10.38-9.41-18.49-10.06-18.82a3.41,3.41,0,0,0-4.22,0c-.32.32-9.73,8.43-9.73,18.82,0,8.11,5.84,14.92,8.76,17.52v7.46c-.32-.32-.65-1-1.3-1.3C178.2,108,162.63,109,162,109a2.91,2.91,0,0,0-2.92,2.92c0,.65-1.3,16.22,7.79,25.63,6.49,6.81,16.55,8.11,22.06,8.43v15.25a30.85,30.85,0,0,0-4.87-6.49c-12.65-12.33-34.06-10.38-35-10.38a2.91,2.91,0,0,0-2.92,2.92c0,1-1.3,22.06,11.35,34.71,1.62,1.62,8.7,4.68,14.05,8.16Zm12.58-49.64c.32-4.22,1.3-12.33,6.49-17.19s13.3-5.84,17.52-5.84c-.32,4.22-1.3,12.33-6.49,17.19S199.61,138.52,195.07,138.52Z"/><circle cx="142.84" cy="214.73" r="4.54"/><circle cx="235.95" cy="234.19" r="4.54"/><circle cx="193.13" cy="221.54" r="4.54"/><circle cx="138.3" cy="232.89" r="4.54"/><circle cx="175.61" cy="237.76" r="4.54"/><circle cx="216.81" cy="217" r="4.54"/><circle cx="261.25" cy="214.73" r="4.54"/><circle cx="121.75" cy="218.3" r="3.57"/><circle cx="159.71" cy="228.35" r="3.57"/><circle cx="203.83" cy="237.76" r="3.57"/><circle cx="239.19" cy="215.38" r="3.57"/><circle cx="173.66" cy="217" r="3.57"/><path class="cls-1" d="M188.26,185.56c-5.84,0-18.82-1-26.6-8.76-8.11-7.79-9.41-20.76-9.41-26.6,5.84,0,18.82,1,26.93,8.76s9.08,20.76,9.08,26.6Z"/><path class="cls-1" d="M188.58,138.84c-4.22-.32-12.33-1.3-17.19-6.49s-5.84-13.3-5.84-17.52c4.22.32,12.33,1.3,17.19,6.49,4.54,4.87,5.84,12,5.84,16.55Z"/><path class="cls-1" d="M191.83,104.78c-2.27-2.6-5.52-6.81-5.52-11.68s2.92-9.41,5.19-11.68C193.77,84,197,88.24,197,93.1,197.34,98,194.1,102.19,191.83,104.78Z"/><path class="cls-1" d="M195.07,185.56c0-5.84,1.3-18.82,9.41-26.6s21.09-8.76,26.93-8.76c0,5.84-1.3,18.82-9.41,26.6s-20.76,8.76-26.93,8.76Z"/><path class="cls-1" d="M195.07,138.52c.32-4.22,1.3-12.33,6.49-17.19s13.3-5.84,17.52-5.84c-.32,4.22-1.3,12.33-6.49,17.19S199.61,138.52,195.07,138.52Z"/></svg>