<svg id="Capa_1" data-name="Capa 1" xmlns="http://www.w3.org/2000/svg" viewBox="0 0 479 324"><title>asistenteMesa de trabajo 1calmo</title><path d="M77,140.18a21.81,21.81,0,0,1,11.75-3.36,22.86,22.86,0,0,1,8.27,1.26,24,24,0,0,1,6.57,4.15,5,5,0,0,0,6.56,0,4.17,4.17,0,0,0,1.42-3.23,5.49,5.49,0,0,0-.39-2.13,4.54,4.54,0,0,0-1.53-1.79,34,34,0,0,0-9.64-5.65,33.46,33.46,0,0,0-11.27-1.72A31.94,31.94,0,0,0,72,132.28a33.24,33.24,0,0,0-12,12.43A35,35,0,0,0,55.71,162a35.39,35.39,0,0,0,4.37,17.38,32.81,32.81,0,0,0,12,12.43,32.13,32.13,0,0,0,16.76,4.55,32.74,32.74,0,0,0,21-7.5,4.88,4.88,0,0,0,1.53-3.55,4.83,4.83,0,0,0-1.22-3.4c-1.5-1.62-3.89-1.87-6.24-.2a25,25,0,0,1-15.11,5.43A21.8,21.8,0,0,1,77,183.73a24.52,24.52,0,0,1-8.54-9.11,26.84,26.84,0,0,1,0-25.28A24.46,24.46,0,0,1,77,140.18Z"/><path d="M159.15,131.88a4.72,4.72,0,0,0-4.7-3.34,4.86,4.86,0,0,0-4.69,3.32l-23.65,56.47a6.12,6.12,0,0,0-.46,2.16A5,5,0,0,0,127,194a4.63,4.63,0,0,0,3.52,1.5,4.85,4.85,0,0,0,2.69-.81,5.29,5.29,0,0,0,1.92-2.26l4.64-11.4h29.38l4.56,11.39a4.67,4.67,0,0,0,1.88,2.27,5,5,0,0,0,2.72.81,4.84,4.84,0,0,0,3.55-1.44,4.74,4.74,0,0,0,1.44-3.46,5.92,5.92,0,0,0-.47-2.09Zm6.6,40.66H143.25l11.36-27.71Z"/><path d="M241.42,185.49H211.58v-52a4.92,4.92,0,0,0-5-5,4.74,4.74,0,0,0-3.46,1.44,4.84,4.84,0,0,0-1.44,3.55v57a4.92,4.92,0,0,0,1.39,3.54,4.7,4.7,0,0,0,3.51,1.45h34.83a5,5,0,1,0,0-10Z"/><path d="M327.72,128.53a4.85,4.85,0,0,0-4.42,2.7l-23.77,48.94-24.45-49a5,5,0,0,0-9.39,2.32v57a5,5,0,1,0,10,0V152l18.94,38a4.8,4.8,0,0,0,4.59,3,5,5,0,0,0,4.34-2.53l19.2-39.11v39.18a5,5,0,0,0,8.48,3.55,4.77,4.77,0,0,0,1.49-3.55v-57a4.92,4.92,0,0,0-5-5Z"/><path d="M419,144.24a31.13,31.13,0,0,0-12.1-12.18,37.75,37.75,0,0,0-35.26,0,30.82,30.82,0,0,0-12.06,12.18,38.85,38.85,0,0,0,0,35.46,30.74,30.74,0,0,0,12.06,12.23,37.84,37.84,0,0,0,35.31,0A31.12,31.12,0,0,0,419,179.71a38.51,38.51,0,0,0,0-35.47Zm-29.69,42.93a24.18,24.18,0,0,1-12.56-3.32,23.38,23.38,0,0,1-8.69-9.06,27.94,27.94,0,0,1,0-25.67,23.19,23.19,0,0,1,8.65-9,25.85,25.85,0,0,1,25.2,0,23.2,23.2,0,0,1,8.65,9,27.93,27.93,0,0,1,0,25.67,23.4,23.4,0,0,1-8.69,9.06A24.19,24.19,0,0,1,389.28,187.17Z"/></svg>